    <svg version="1.1" id="Calque_1" xmlns="http://www.w3.org/2000/svg" xmlns:xlink="http://www.w3.org/1999/xlink" x="0px" y="0px" viewBox="0 0 102.5 102.8" xml:space="preserve">
        <g>
            <path fill="#84416C" d="M74.8,10L74.8,10l-19,21l-0.5,0.6c0.2,0.2,0.4,0.4,0.6,0.6l17,20.4l21,23.6c4.3-7.3,6.8-15.8,6.8-25 c0-18.2-9.9-34.1-24.7-42.6L74.8,10z"/>
        </g>
        <g>
            <path fill="#84416C" d="M41.6,4.7v13.9L56,2.2c-1.5-0.1-3-0.2-4.6-0.2c-3.4,0-6.8,0.3-10,1C41.5,3.6,41.6,4.1,41.6,4.7z"/>
        </g>
        <g>
            <path fill="#84416C" d="M79.9,89L68,76.2l0,0l-9.7-11.6L48.7,53l0,0L43,46.3l-3.2,3.8c-0.4,0.7-0.9,1.3-1.5,1.8 c-1.5,1.8-3.3,3-5.8,3.5c-5.3,1-10.1-2.3-11-7.6c-0.1-0.7-0.3-1.3-0.2-2c0-0.4,0-1,0-1.4V12.2c-11.7,9-19.2,23.1-19.2,39 c0,27.2,22,49.2,49.2,49.2c11.2,0,21.6-3.8,29.8-10.1C80.8,89.9,80.3,89.5,79.9,89z"/>
        </g>
    </svg>